# xmcd
#
# Track frame offsets:
#	150
#	50173
#	81181
#	113654
#	150596
#	172399
#	197690
#	211147
#	255753
#	303451
#
# Disc length: 4458 seconds
#
# Revision: 1
# Processed by: cddbd v1.5.2PL0 Copyright (c) Steve Scherf et al.
# Submitted via: audiograbber 1.83.01
#
DISCID=8111680a
DTITLE=Grateful Dead - 95-07-05 Riverport Amphitheatre, Maryland Heights MO
DYEAR=1900
DGENRE=
TTITLE0=Feel Like A Stranger
TTITLE1=Peggy-O
TTITLE2=The Same Thing
TTITLE3=Loose Lucy
TTITLE4=Childhood's End
TTITLE5=El Paso
TTITLE6=Don't Ease Me In
TTITLE7=Iko Iko
TTITLE8=Playing In The Band
TTITLE9=Crazy Fingers
EXTD=
EXTT0=
EXTT1=
EXTT2=
EXTT3=
EXTT4=
EXTT5=
EXTT6=
EXTT7=
EXTT8=
EXTT9=
PLAYORDER=
